{
  "asset": {
    "version": "2.0",
    "generator": "arduconfigurator scripts/generate-plane-gltf.mjs"
  },
  "scene": 0,
  "scenes": [
    {
      "name": "Scene",
      "nodes": [
        0
      ]
    }
  ],
  "nodes": [
    {
      "name": "plane",
      "mesh": 0
    }
  ],
  "meshes": [
    {
      "name": "plane",
      "primitives": [
        {
          "attributes": {
            "POSITION": 0,
            "NORMAL": 1
          },
          "indices": 2,
          "material": 0
        }
      ]
    }
  ],
  "materials": [
    {
      "name": "airframe",
      "pbrMetallicRoughness": {
        "baseColorFactor": [
          0.847,
          0.89,
          0.953,
          1
        ],
        "metallicFactor": 0.18,
        "roughnessFactor": 0.56
      }
    }
  ],
  "accessors": [
    {
      "bufferView": 0,
      "componentType": 5126,
      "count": 144,
      "type": "VEC3",
      "min": [
        -2.299999952316284,
        -0.20000000298023224,
        -1.940000057220459
      ],
      "max": [
        2.299999952316284,
        0.5799999833106995,
        1.75
      ]
    },
    {
      "bufferView": 1,
      "componentType": 5126,
      "count": 144,
      "type": "VEC3"
    },
    {
      "bufferView": 2,
      "componentType": 5123,
      "count": 216,
      "type": "SCALAR"
    }
  ],
  "bufferViews": [
    {
      "buffer": 0,
      "byteOffset": 0,
      "byteLength": 1728,
      "target": 34962
    },
    {
      "buffer": 0,
      "byteOffset": 1728,
      "byteLength": 1728,
      "target": 34962
    },
    {
      "buffer": 0,
      "byteOffset": 3456,
      "byteLength": 432,
      "target": 34963
    }
  ],
  "buffers": [
    {
      "byteLength": 3888,
      "uri": "data:application/octet-stream;base64,"
    }
  ]
}
