{
  "asset": {
    "version": "2.0",
    "generator": "arduconfigurator scripts/generate-rover-gltf.mjs"
  },
  "scene": 0,
  "scenes": [
    {
      "name": "Scene",
      "nodes": [
        0
      ]
    }
  ],
  "nodes": [
    {
      "name": "rover",
      "mesh": 0
    }
  ],
  "meshes": [
    {
      "name": "rover",
      "primitives": [
        {
          "attributes": {
            "POSITION": 0,
            "NORMAL": 1
          },
          "indices": 2,
          "material": 0
        }
      ]
    }
  ],
  "materials": [
    {
      "name": "chassis",
      "pbrMetallicRoughness": {
        "baseColorFactor": [
          0.59,
          0.64,
          0.7,
          1
        ],
        "metallicFactor": 0.32,
        "roughnessFactor": 0.5
      }
    }
  ],
  "accessors": [
    {
      "bufferView": 0,
      "componentType": 5126,
      "count": 192,
      "type": "VEC3",
      "min": [
        -1.0199999809265137,
        -0.4399999976158142,
        -1.9500000476837158
      ],
      "max": [
        1.0199999809265137,
        0.8799999952316284,
        1.9500000476837158
      ]
    },
    {
      "bufferView": 1,
      "componentType": 5126,
      "count": 192,
      "type": "VEC3"
    },
    {
      "bufferView": 2,
      "componentType": 5123,
      "count": 288,
      "type": "SCALAR"
    }
  ],
  "bufferViews": [
    {
      "buffer": 0,
      "byteOffset": 0,
      "byteLength": 2304,
      "target": 34962
    },
    {
      "buffer": 0,
      "byteOffset": 2304,
      "byteLength": 2304,
      "target": 34962
    },
    {
      "buffer": 0,
      "byteOffset": 4608,
      "byteLength": 576,
      "target": 34963
    }
  ],
  "buffers": [
    {
      "byteLength": 5184,
      "uri": "data:application/octet-stream;base64,"
    }
  ]
}
