{
  "asset": {
    "version": "2.0",
    "generator": "arduconfigurator scripts/generate-sub-gltf.mjs"
  },
  "scene": 0,
  "scenes": [
    {
      "name": "Scene",
      "nodes": [
        0
      ]
    }
  ],
  "nodes": [
    {
      "name": "sub",
      "mesh": 0
    }
  ],
  "meshes": [
    {
      "name": "sub",
      "primitives": [
        {
          "attributes": {
            "POSITION": 0,
            "NORMAL": 1
          },
          "indices": 2,
          "material": 0
        }
      ]
    }
  ],
  "materials": [
    {
      "name": "hull",
      "pbrMetallicRoughness": {
        "baseColorFactor": [
          0.45,
          0.72,
          0.8,
          1
        ],
        "metallicFactor": 0.22,
        "roughnessFactor": 0.48
      }
    }
  ],
  "accessors": [
    {
      "bufferView": 0,
      "componentType": 5126,
      "count": 240,
      "type": "VEC3",
      "min": [
        -1.1200000047683716,
        -0.46000000834465027,
        -1.7799999713897705
      ],
      "max": [
        1.1200000047683716,
        0.7599999904632568,
        1.8700000047683716
      ]
    },
    {
      "bufferView": 1,
      "componentType": 5126,
      "count": 240,
      "type": "VEC3"
    },
    {
      "bufferView": 2,
      "componentType": 5123,
      "count": 360,
      "type": "SCALAR"
    }
  ],
  "bufferViews": [
    {
      "buffer": 0,
      "byteOffset": 0,
      "byteLength": 2880,
      "target": 34962
    },
    {
      "buffer": 0,
      "byteOffset": 2880,
      "byteLength": 2880,
      "target": 34962
    },
    {
      "buffer": 0,
      "byteOffset": 5760,
      "byteLength": 720,
      "target": 34963
    }
  ],
  "buffers": [
    {
      "byteLength": 6480,
      "uri": "data:application/octet-stream;base64,"
    }
  ]
}
